<svg width="56" height="56" viewBox="0 0 56 56" fill="none" xmlns="http://www.w3.org/2000/svg">
  <rect width="56" height="56" rx="16" fill="#5D98EF"/>
  <path d="M41.3334 39.9166C42.0237 39.9166 42.5834 39.357 42.5834 38.6666C42.5834 37.9763 42.0237 37.4166 41.3334 37.4166V39.9166ZM15.9167 17.3333C15.9167 16.643 15.357 16.0833 14.6667 16.0833C13.9763 16.0833 13.4167 16.643 13.4167 17.3333H15.9167ZM17.5787 38.0853L18.1462 36.9716H18.1462L17.5787 38.0853ZM15.248 35.7546L14.1342 36.3221L15.248 35.7546ZM27.1381 24.4714L28.022 23.5875L27.1381 24.4714ZM31.5286 28.8619L30.6447 29.7458L31.5286 28.8619ZM32.4714 28.8619L33.3553 29.7458L33.3553 29.7458L32.4714 28.8619ZM40.8839 22.2172C41.3721 21.729 41.3721 20.9376 40.8839 20.4494C40.3958 19.9613 39.6043 19.9613 39.1161 20.4494L40.8839 22.2172ZM19.1161 29.7828C18.628 30.2709 18.628 31.0624 19.1161 31.5505C19.6043 32.0387 20.3957 32.0387 20.8839 31.5505L19.1161 29.7828ZM26.1953 24.4714L27.0792 25.3553V25.3553L26.1953 24.4714ZM41.3334 37.4166H23.2V39.9166H41.3334V37.4166ZM15.9167 30.1333V17.3333H13.4167V30.1333H15.9167ZM23.2 37.4166C21.6859 37.4166 20.6255 37.4157 19.7989 37.3481C18.9868 37.2818 18.5111 37.1575 18.1462 36.9716L17.0112 39.1991C17.7873 39.5945 18.6287 39.7609 19.5953 39.8398C20.5474 39.9176 21.7272 39.9166 23.2 39.9166V37.4166ZM13.4167 30.1333C13.4167 31.6062 13.4157 32.786 13.4935 33.738C13.5725 34.7047 13.7388 35.5461 14.1342 36.3221L16.3617 35.1871C16.1758 34.8223 16.0515 34.3465 15.9852 33.5344C15.9177 32.7078 15.9167 31.6474 15.9167 30.1333H13.4167ZM18.1462 36.9716C17.3779 36.5801 16.7532 35.9554 16.3617 35.1871L14.1342 36.3221C14.7654 37.5608 15.7725 38.5679 17.0112 39.1991L18.1462 36.9716ZM26.2542 25.3553L30.6447 29.7458L32.4125 27.978L28.022 23.5875L26.2542 25.3553ZM33.3553 29.7458L40.8839 22.2172L39.1161 20.4494L31.5875 27.978L33.3553 29.7458ZM20.8839 31.5505L27.0792 25.3553L25.3114 23.5875L19.1161 29.7828L20.8839 31.5505ZM30.6447 29.7458C31.3932 30.4943 32.6068 30.4943 33.3553 29.7458L31.5875 27.978C31.8153 27.7502 32.1847 27.7502 32.4125 27.978L30.6447 29.7458ZM28.022 23.5875C27.2735 22.839 26.0599 22.839 25.3114 23.5875L27.0792 25.3553C26.8514 25.5831 26.482 25.5831 26.2542 25.3553L28.022 23.5875Z" fill="white"/>
</svg>
