<svg width="48" height="48" viewBox="0 0 48 48" fill="none" xmlns="http://www.w3.org/2000/svg">
  <rect width="48" height="48" rx="12" fill="#EBF3FC"/>
  <path d="M17 23C16.4477 23 16 23.4477 16 24C16 24.5523 16.4477 25 17 25V23ZM19.3333 25C19.8856 25 20.3333 24.5523 20.3333 24C20.3333 23.4477 19.8856 23 19.3333 23V25ZM28.6667 27.6667C28.1144 27.6667 27.6667 28.1144 27.6667 28.6667C27.6667 29.219 28.1144 29.6667 28.6667 29.6667L28.6667 27.6667ZM31 29.6667C31.5523 29.6667 32 29.219 32 28.6667C32 28.1144 31.5523 27.6667 31 27.6667V29.6667ZM24 23C23.4477 23 23 23.4477 23 24C23 24.5523 23.4477 25 24 25V23ZM31 25C31.5523 25 32 24.5523 32 24C32 23.4477 31.5523 23 31 23V25ZM17 27.6667C16.4477 27.6667 16 28.1144 16 28.6667C16 29.219 16.4477 29.6667 17 29.6667V27.6667ZM24 29.6667C24.5523 29.6667 25 29.219 25 28.6667C25 28.1144 24.5523 27.6667 24 27.6667V29.6667ZM14.8814 32.8247L15.3354 31.9337L14.8814 32.8247ZM12.842 30.7853L13.733 30.3313L12.842 30.7853ZM35.158 30.7853L34.267 30.3313L35.158 30.7853ZM33.1186 32.8247L32.6646 31.9337L33.1186 32.8247ZM33.1186 15.1753L32.6646 16.0663L33.1186 15.1753ZM35.158 17.2147L34.267 17.6687L35.158 17.2147ZM14.8814 15.1753L15.3354 16.0663L14.8814 15.1753ZM12.842 17.2147L13.733 17.6687L12.842 17.2147ZM17 25H19.3333V23H17V25ZM28.6667 29.6667L31 29.6667V27.6667L28.6667 27.6667L28.6667 29.6667ZM24 25H31V23H24V25ZM17 29.6667L24 29.6667V27.6667L17 27.6667V29.6667ZM19.8 15.6667H28.2V13.6667H19.8V15.6667ZM34.6667 22.1334V25.8667H36.6667V22.1334H34.6667ZM28.2 32.3334H19.8V34.3334H28.2V32.3334ZM13.3333 25.8667V22.1334H11.3333V25.8667H13.3333ZM19.8 32.3334C18.4767 32.3334 17.5444 32.3326 16.8164 32.2731C16.1 32.2146 15.67 32.1042 15.3354 31.9337L14.4274 33.7157C15.091 34.0538 15.8135 34.1978 16.6535 34.2665C17.4818 34.3341 18.5097 34.3334 19.8 34.3334V32.3334ZM11.3333 25.8667C11.3333 27.157 11.3326 28.1848 11.4002 29.0132C11.4689 29.8532 11.6128 30.5757 11.951 31.2393L13.733 30.3313C13.5625 29.9967 13.4521 29.5666 13.3936 28.8503C13.3341 28.1223 13.3333 27.19 13.3333 25.8667H11.3333ZM15.3354 31.9337C14.6454 31.5822 14.0845 31.0212 13.733 30.3313L11.951 31.2393C12.4942 32.3056 13.3611 33.1724 14.4274 33.7157L15.3354 31.9337ZM34.6667 25.8667C34.6667 27.19 34.6659 28.1223 34.6064 28.8503C34.5479 29.5666 34.4375 29.9967 34.267 30.3313L36.049 31.2393C36.3871 30.5757 36.5311 29.8532 36.5998 29.0132C36.6674 28.1848 36.6667 27.157 36.6667 25.8667H34.6667ZM28.2 34.3334C29.4903 34.3334 30.5181 34.3341 31.3465 34.2665C32.1865 34.1978 32.909 34.0538 33.5726 33.7157L32.6646 31.9337C32.33 32.1042 31.9 32.2146 31.1836 32.2731C30.4556 32.3326 29.5233 32.3334 28.2 32.3334V34.3334ZM34.267 30.3313C33.9155 31.0212 33.3546 31.5822 32.6646 31.9337L33.5726 33.7157C34.6389 33.1724 35.5057 32.3056 36.049 31.2393L34.267 30.3313ZM28.2 15.6667C29.5233 15.6667 30.4556 15.6675 31.1836 15.7269C31.9 15.7855 32.33 15.8958 32.6646 16.0663L33.5726 14.2843C32.909 13.9462 32.1865 13.8022 31.3465 13.7336C30.5181 13.6659 29.4903 13.6667 28.2 13.6667V15.6667ZM36.6667 22.1334C36.6667 20.8431 36.6674 19.8152 36.5998 18.9869C36.5311 18.1468 36.3871 17.4243 36.049 16.7607L34.267 17.6687C34.4375 18.0034 34.5479 18.4334 34.6064 19.1497C34.6659 19.8777 34.6667 20.8101 34.6667 22.1334H36.6667ZM32.6646 16.0663C33.3546 16.4179 33.9155 16.9788 34.267 17.6687L36.049 16.7607C35.5057 15.6945 34.6389 14.8276 33.5726 14.2843L32.6646 16.0663ZM19.8 13.6667C18.5097 13.6667 17.4818 13.6659 16.6535 13.7336C15.8135 13.8022 15.091 13.9462 14.4274 14.2843L15.3354 16.0663C15.67 15.8958 16.1 15.7855 16.8164 15.7269C17.5444 15.6675 18.4767 15.6667 19.8 15.6667V13.6667ZM13.3333 22.1334C13.3333 20.8101 13.3341 19.8777 13.3936 19.1497C13.4521 18.4334 13.5625 18.0034 13.733 17.6687L11.951 16.7607C11.6128 17.4243 11.4689 18.1468 11.4002 18.9869C11.3326 19.8152 11.3333 20.8431 11.3333 22.1334H13.3333ZM14.4274 14.2843C13.3611 14.8276 12.4942 15.6945 11.951 16.7607L13.733 17.6687C14.0845 16.9788 14.6454 16.4179 15.3354 16.0663L14.4274 14.2843Z" fill="#5D98EF"/>
</svg>
