<svg width="38" height="38" viewBox="0 0 38 38" fill="none" xmlns="http://www.w3.org/2000/svg">
  <rect x="1" y="1" width="36" height="36" rx="8" fill="#0C181E"/>
  <rect x="1" y="1" width="36" height="36" rx="8" stroke="white" stroke-width="2"/>
  <g clip-path="url(#clip0_189_386)">
    <path d="M16.7273 10.6667L21.2727 10.6667C23.3941 10.6667 24.4548 10.6667 25.2651 11.0795C25.9778 11.4427 26.5573 12.0222 26.9205 12.7349C27.3333 13.5452 27.3333 14.6059 27.3333 16.7273V21.2727C27.3333 23.3942 27.3333 24.4549 26.9205 25.2651C26.5573 25.9779 25.9778 26.5573 25.2651 26.9205C24.4548 27.3334 23.3941 27.3334 21.2727 27.3334H16.7273M16.7273 10.6667C14.6059 10.6667 13.5452 10.6667 12.7349 11.0795C12.0221 11.4427 11.4427 12.0222 11.0795 12.7349C10.6667 13.5452 10.6667 14.6059 10.6667 16.7273L10.6667 21.2727C10.6667 23.3942 10.6667 24.4549 11.0795 25.2651C11.4427 25.9779 12.0221 26.5573 12.7349 26.9205C13.5452 27.3334 14.6059 27.3334 16.7273 27.3334M16.7273 10.6667L16.7273 27.3334M16.7273 19H27.3333" stroke="white" stroke-width="2" stroke-linecap="round"/>
  </g>
  <defs>
    <clipPath id="clip0_189_386">
      <rect width="20" height="20" fill="white" transform="translate(9 9)"/>
    </clipPath>
  </defs>
</svg>
