<svg width="38" height="38" viewBox="0 0 38 38" fill="none" xmlns="http://www.w3.org/2000/svg">
  <rect x="1" y="1" width="36" height="36" rx="8" fill="#0C181E"/>
  <rect x="1" y="1" width="36" height="36" rx="8" stroke="white" stroke-width="2"/>
  <path d="M26.5 27.5C27.0523 27.5 27.5 27.0523 27.5 26.5C27.5 25.9477 27.0523 25.5 26.5 25.5V27.5ZM12.5 11.5C12.5 10.9477 12.0523 10.5 11.5 10.5C10.9477 10.5 10.5 10.9477 10.5 11.5H12.5ZM13.32 26.1367L13.774 25.2457L13.774 25.2457L13.32 26.1367ZM11.8633 24.68L12.7543 24.226L12.7543 24.226L11.8633 24.68ZM14.6667 23.1667C14.6667 23.719 15.1144 24.1667 15.6667 24.1667C16.219 24.1667 16.6667 23.719 16.6667 23.1667H14.6667ZM16.6667 19C16.6667 18.4477 16.219 18 15.6667 18C15.1144 18 14.6667 18.4477 14.6667 19H16.6667ZM18.8333 23.1667C18.8333 23.719 19.281 24.1667 19.8333 24.1667C20.3856 24.1667 20.8333 23.719 20.8333 23.1667L18.8333 23.1667ZM20.8333 11.5C20.8333 10.9477 20.3856 10.5 19.8333 10.5C19.281 10.5 18.8333 10.9477 18.8333 11.5L20.8333 11.5ZM23 23.1667C23 23.719 23.4477 24.1667 24 24.1667C24.5523 24.1667 25 23.719 25 23.1667H23ZM25 15.6667C25 15.1144 24.5523 14.6667 24 14.6667C23.4477 14.6667 23 15.1144 23 15.6667H25ZM26.5 25.5H16.8333V27.5H26.5V25.5ZM12.5 21.1667V11.5H10.5V21.1667H12.5ZM16.8333 25.5C15.8834 25.5 15.2311 25.4992 14.7254 25.4579C14.2314 25.4175 13.9661 25.3435 13.774 25.2457L12.866 27.0277C13.387 27.2932 13.9449 27.4008 14.5626 27.4513C15.1686 27.5008 15.9164 27.5 16.8333 27.5V25.5ZM10.5 21.1667C10.5 22.0836 10.4992 22.8314 10.5487 23.4374C10.5992 24.0551 10.7068 24.613 10.9723 25.134L12.7543 24.226C12.6565 24.0339 12.5825 23.7686 12.5421 23.2746C12.5008 22.7689 12.5 22.1166 12.5 21.1667H10.5ZM13.774 25.2457C13.335 25.022 12.978 24.665 12.7543 24.226L10.9723 25.134C11.3878 25.9493 12.0507 26.6122 12.866 27.0277L13.774 25.2457ZM16.6667 23.1667V19H14.6667V23.1667H16.6667ZM20.8333 23.1667L20.8333 11.5L18.8333 11.5L18.8333 23.1667L20.8333 23.1667ZM25 23.1667V15.6667H23V23.1667H25Z" fill="white"/>
</svg>
