<svg width="40" height="40" viewBox="0 0 40 40" fill="none" xmlns="http://www.w3.org/2000/svg">
  <rect width="40" height="40" rx="16" fill="white"/>
  <path d="M15.0627 10.9373L15.7698 11.6444L15.7698 11.6444L15.0627 10.9373ZM10.9373 15.0627L10.2302 14.3556L10.2302 14.3556L10.9373 15.0627ZM10.9373 24.9373L11.6444 24.2302H11.6444L10.9373 24.9373ZM15.0627 29.0627L14.3556 29.7698H14.3556L15.0627 29.0627ZM29.0627 15.0627L29.7698 14.3556L29.0627 15.0627ZM24.9373 10.9373L24.2302 11.6444V11.6444L24.9373 10.9373ZM29.9447 16.3615L30.9171 16.1281V16.1281L29.9447 16.3615ZM29.7053 15.7834L30.5579 15.2609V15.2609L29.7053 15.7834ZM29.7053 24.2166L30.5579 24.7391V24.7391L29.7053 24.2166ZM29.9447 23.6385L30.9171 23.8719L30.9171 23.8719L29.9447 23.6385ZM23.6385 29.9447L23.8719 30.9171L23.8719 30.9171L23.6385 29.9447ZM24.2166 29.7053L24.7391 30.5579H24.7391L24.2166 29.7053ZM15.7834 29.7053L15.2609 30.5579H15.2609L15.7834 29.7053ZM16.3615 29.9447L16.1281 30.9171H16.1281L16.3615 29.9447ZM10.0553 23.6385L9.08289 23.8719L9.08289 23.8719L10.0553 23.6385ZM10.2947 24.2166L11.1474 23.6941L11.1474 23.6941L10.2947 24.2166ZM10.2947 15.7834L11.1474 16.3059L11.1474 16.3059L10.2947 15.7834ZM10.0553 16.3615L11.0276 16.595V16.595L10.0553 16.3615ZM16.3615 10.0553L16.595 11.0276H16.595L16.3615 10.0553ZM15.7834 10.2947L16.3059 11.1474V11.1474L15.7834 10.2947ZM23.6385 10.0553L23.8719 9.08289L23.8719 9.08289L23.6385 10.0553ZM24.2166 10.2947L23.6941 11.1474L23.6941 11.1474L24.2166 10.2947ZM16 19C15.4477 19 15 19.4477 15 20C15 20.5523 15.4477 21 16 21V19ZM24 21C24.5523 21 25 20.5523 25 20C25 19.4477 24.5523 19 24 19V21ZM22.6745 9H17.3255V11H22.6745V9ZM14.3556 10.2302L10.2302 14.3556L11.6444 15.7698L15.7698 11.6444L14.3556 10.2302ZM9 17.3255V22.6745H11V17.3255H9ZM10.2302 25.6444L14.3556 29.7698L15.7698 28.3556L11.6444 24.2302L10.2302 25.6444ZM17.3255 31H22.6745V29H17.3255V31ZM25.6444 29.7698L29.7698 25.6444L28.3556 24.2302L24.2302 28.3556L25.6444 29.7698ZM31 22.6745V17.3255H29V22.6745H31ZM29.7698 14.3556L25.6444 10.2302L24.2302 11.6444L28.3556 15.7698L29.7698 14.3556ZM31 17.3255C31 16.8839 31.0064 16.5001 30.9171 16.1281L28.9724 16.595C28.9936 16.6833 29 16.7887 29 17.3255H31ZM28.3556 15.7698C28.7352 16.1494 28.8052 16.2285 28.8526 16.3059L30.5579 15.2609C30.358 14.9347 30.0821 14.6679 29.7698 14.3556L28.3556 15.7698ZM30.9171 16.1281C30.8436 15.822 30.7224 15.5293 30.5579 15.2609L28.8526 16.3059C28.9075 16.3954 28.9479 16.4929 28.9724 16.595L30.9171 16.1281ZM29.7698 25.6444C30.0821 25.3321 30.358 25.0653 30.5579 24.7391L28.8526 23.6941C28.8052 23.7715 28.7352 23.8506 28.3556 24.2302L29.7698 25.6444ZM29 22.6745C29 23.2113 28.9936 23.3167 28.9724 23.405L30.9171 23.8719C31.0064 23.4999 31 23.1161 31 22.6745H29ZM30.5579 24.7391C30.7224 24.4707 30.8436 24.178 30.9171 23.8719L28.9724 23.405C28.9479 23.5071 28.9075 23.6046 28.8526 23.6941L30.5579 24.7391ZM22.6745 31C23.1161 31 23.4999 31.0064 23.8719 30.9171L23.405 28.9724C23.3167 28.9936 23.2113 29 22.6745 29V31ZM24.2302 28.3556C23.8506 28.7352 23.7715 28.8052 23.6941 28.8526L24.7391 30.5579C25.0653 30.358 25.3321 30.0821 25.6444 29.7698L24.2302 28.3556ZM23.8719 30.9171C24.178 30.8436 24.4707 30.7224 24.7391 30.5579L23.6941 28.8526C23.6046 28.9075 23.5071 28.9479 23.405 28.9724L23.8719 30.9171ZM14.3556 29.7698C14.6679 30.0821 14.9347 30.358 15.2609 30.5579L16.3059 28.8526C16.2285 28.8052 16.1494 28.7352 15.7698 28.3556L14.3556 29.7698ZM17.3255 29C16.7887 29 16.6833 28.9936 16.595 28.9724L16.1281 30.9171C16.5001 31.0064 16.8839 31 17.3255 31V29ZM15.2609 30.5579C15.5293 30.7224 15.822 30.8436 16.1281 30.9171L16.595 28.9724C16.4929 28.9479 16.3954 28.9075 16.3059 28.8526L15.2609 30.5579ZM9 22.6745C9 23.1161 8.99357 23.4999 9.08289 23.8719L11.0276 23.405C11.0064 23.3167 11 23.2113 11 22.6745H9ZM11.6444 24.2302C11.2648 23.8506 11.1948 23.7715 11.1474 23.6941L9.44208 24.7391C9.64199 25.0653 9.91791 25.3321 10.2302 25.6444L11.6444 24.2302ZM9.08289 23.8719C9.15638 24.178 9.27759 24.4707 9.44208 24.7391L11.1474 23.6941C11.0925 23.6046 11.0521 23.5071 11.0276 23.405L9.08289 23.8719ZM10.2302 14.3556C9.91791 14.6679 9.64199 14.9347 9.44208 15.2609L11.1474 16.3059C11.1948 16.2285 11.2648 16.1494 11.6444 15.7698L10.2302 14.3556ZM11 17.3255C11 16.7887 11.0064 16.6833 11.0276 16.595L9.08289 16.1281C8.99357 16.5001 9 16.8839 9 17.3255H11ZM9.44208 15.2609C9.27759 15.5293 9.15638 15.822 9.08289 16.1281L11.0276 16.595C11.0521 16.4929 11.0925 16.3954 11.1474 16.3059L9.44208 15.2609ZM17.3255 9C16.8839 9 16.5001 8.99357 16.1281 9.08289L16.595 11.0276C16.6833 11.0064 16.7887 11 17.3255 11V9ZM15.7698 11.6444C16.1494 11.2648 16.2285 11.1948 16.3059 11.1474L15.2609 9.44208C14.9347 9.64199 14.6679 9.91791 14.3556 10.2302L15.7698 11.6444ZM16.1281 9.08289C15.822 9.15638 15.5293 9.27759 15.2609 9.44208L16.3059 11.1474C16.3954 11.0925 16.4929 11.0521 16.595 11.0276L16.1281 9.08289ZM22.6745 11C23.2113 11 23.3167 11.0064 23.405 11.0276L23.8719 9.08289C23.4999 8.99357 23.1161 9 22.6745 9V11ZM25.6444 10.2302C25.3321 9.91791 25.0653 9.64199 24.7391 9.44208L23.6941 11.1474C23.7715 11.1948 23.8506 11.2648 24.2302 11.6444L25.6444 10.2302ZM23.405 11.0276C23.5071 11.0521 23.6046 11.0925 23.6941 11.1474L24.7391 9.44208C24.4707 9.27759 24.178 9.15638 23.8719 9.08289L23.405 11.0276ZM16 21H24V19H16V21Z" fill="#E9485A"/>
</svg>
