<svg width="48" height="48" viewBox="0 0 48 48" fill="none" xmlns="http://www.w3.org/2000/svg">
  <rect width="48" height="48" rx="12" fill="#E3FFE9"/>
  <path d="M24 24L27 21M35 24C35 30.0751 30.0751 35 24 35C17.9249 35 13 30.0751 13 24C13 17.9249 17.9249 13 24 13M31 24C31 27.866 27.866 31 24 31C20.134 31 17 27.866 17 24C17 20.134 20.134 17 24 17M27 20.5V16.1196C27 15.985 27.0543 15.8561 27.1505 15.762L30.1505 12.8302C30.4671 12.5208 31 12.7451 31 13.1878V16.5C31 16.7762 31.2239 17 31.5 17H34.8122C35.2549 17 35.4792 17.5329 35.1698 17.8495L32.238 20.8495C32.1439 20.9457 32.015 21 31.8804 21H27.5C27.2239 21 27 20.7762 27 20.5Z" stroke="#4CD669" stroke-width="2" stroke-linecap="round"/>
</svg>
