<svg width="60" height="60" viewBox="0 0 60 60" fill="none" xmlns="http://www.w3.org/2000/svg">
  <path fill-rule="evenodd" clip-rule="evenodd" d="M19.6763 12C18.6681 11.9995 17.6696 12.1977 16.7381 12.5833C15.8065 12.9689 14.9601 13.5343 14.2472 14.2472C13.5343 14.9601 12.9689 15.8065 12.5833 16.7381C12.1977 17.6696 11.9995 18.6681 12 19.6763V48H40.3238C41.332 48.0005 42.3304 47.8023 43.2619 47.4167C44.1935 47.0311 45.0399 46.4657 45.7528 45.7528C46.4657 45.0399 47.0311 44.1935 47.4167 43.2619C47.8023 42.3304 48.0005 41.332 48 40.3238V12H19.6763ZM19.725 23.0775C19.0523 23.0775 18.3947 22.878 17.8354 22.5043C17.276 22.1306 16.8401 21.5994 16.5827 20.9779C16.3252 20.3564 16.2579 19.6725 16.3891 19.0127C16.5203 18.3529 16.8443 17.7469 17.32 17.2712C17.7956 16.7955 18.4017 16.4716 19.0615 16.3404C19.7212 16.2091 20.4051 16.2765 21.0266 16.5339C21.6481 16.7913 22.1793 17.2273 22.553 17.7866C22.9268 18.346 23.1263 19.0035 23.1263 19.6763C23.1263 20.5783 22.7679 21.4434 22.13 22.0813C21.4922 22.7192 20.6271 23.0775 19.725 23.0775ZM30.0488 43.725C29.376 43.725 28.7185 43.5255 28.1591 43.1518C27.5998 42.7781 27.1638 42.2469 26.9064 41.6254C26.649 41.0039 26.5816 40.32 26.7129 39.6602C26.8441 39.0004 27.168 38.3944 27.6437 37.9187C28.1194 37.443 28.7254 37.1191 29.3852 36.9879C30.045 36.8566 30.7289 36.924 31.3504 37.1814C31.9719 37.4388 32.5031 37.8748 32.8768 38.4341C33.2505 38.9935 33.45 39.6511 33.45 40.3238C33.45 41.2258 33.0917 42.0909 32.4538 42.7288C31.8159 43.3667 30.9508 43.725 30.0488 43.725ZM30.0488 33.4013C29.376 33.4013 28.7185 33.2018 28.1591 32.828C27.5998 32.4543 27.1638 31.9231 26.9064 31.3016C26.649 30.6801 26.5816 29.9962 26.7129 29.3365C26.8441 28.6767 27.168 28.0706 27.6437 27.595C28.1194 27.1193 28.7254 26.7953 29.3852 26.6641C30.045 26.5329 30.7289 26.6002 31.3504 26.8577C31.9719 27.1151 32.5031 27.551 32.8768 28.1104C33.2505 28.6697 33.45 29.3273 33.45 30C33.45 30.9021 33.0917 31.7672 32.4538 32.4051C31.8159 33.0429 30.9508 33.4013 30.0488 33.4013ZM30.0488 23.0775C29.376 23.0775 28.7185 22.878 28.1591 22.5043C27.5998 22.1306 27.1638 21.5994 26.9064 20.9779C26.649 20.3564 26.5816 19.6725 26.7129 19.0127C26.8441 18.3529 27.168 17.7469 27.6437 17.2712C28.1194 16.7955 28.7254 16.4716 29.3852 16.3404C30.045 16.2091 30.7289 16.2765 31.3504 16.5339C31.9719 16.7913 32.5031 17.2273 32.8768 17.7866C33.2505 18.346 33.45 19.0035 33.45 19.6763C33.45 20.1229 33.362 20.5652 33.1911 20.9779C33.0202 21.3905 32.7696 21.7655 32.4538 22.0813C32.138 22.3971 31.763 22.6477 31.3504 22.8186C30.9377 22.9895 30.4954 23.0775 30.0488 23.0775ZM40.3725 43.725C39.6998 43.725 39.0422 43.5255 38.4829 43.1518C37.9235 42.7781 37.4876 42.2469 37.2302 41.6254C36.9727 41.0039 36.9054 40.32 37.0366 39.6602C37.1678 39.0004 37.4918 38.3944 37.9675 37.9187C38.4431 37.443 39.0492 37.1191 39.709 36.9879C40.3687 36.8566 41.0526 36.924 41.6741 37.1814C42.2956 37.4388 42.8268 37.8748 43.2005 38.4341C43.5743 38.9935 43.7738 39.6511 43.7738 40.3238C43.7738 41.2258 43.4154 42.0909 42.7776 42.7288C42.1397 43.3667 41.2746 43.725 40.3725 43.725ZM40.3725 23.0775C39.6998 23.0775 39.0422 22.878 38.4829 22.5043C37.9235 22.1306 37.4876 21.5994 37.2302 20.9779C36.9727 20.3564 36.9054 19.6725 37.0366 19.0127C37.1678 18.3529 37.4918 17.7469 37.9675 17.2712C38.4431 16.7955 39.0492 16.4716 39.709 16.3404C40.3687 16.2091 41.0526 16.2765 41.6741 16.5339C42.2956 16.7913 42.8268 17.2273 43.2005 17.7866C43.5743 18.346 43.7738 19.0035 43.7738 19.6763C43.7738 20.1229 43.6858 20.5652 43.5148 20.9779C43.3439 21.3905 43.0934 21.7655 42.7776 22.0813C42.4617 22.3971 42.0868 22.6477 41.6741 22.8186C41.2614 22.9895 40.8192 23.0775 40.3725 23.0775Z" fill="url(#paint0_linear_270_490)"/>
  <defs>
    <linearGradient id="paint0_linear_270_490" x1="30" y1="48" x2="30" y2="12" gradientUnits="userSpaceOnUse">
      <stop stop-color="#0047A7"/>
      <stop offset="0.99" stop-color="#296DCB"/>
    </linearGradient>
  </defs>
</svg>
