<svg width="40" height="40" viewBox="0 0 40 40" fill="none" xmlns="http://www.w3.org/2000/svg">
  <mask id="mask0_7_222" style="mask-type:alpha" maskUnits="userSpaceOnUse" x="0" y="0" width="40" height="40">
    <rect width="40" height="40" rx="20" fill="#E9485A"/>
  </mask>
  <g mask="url(#mask0_7_222)">
    <rect width="40" height="40" rx="20" fill="#0C181E"/>
    <path d="M3 19.6798C3.10245 19.5516 3.09101 19.3963 3.09816 19.2471C3.16344 17.8971 3.44602 16.5948 3.95541 15.3426C4.60538 13.7443 5.53601 12.3415 6.87454 11.2345C8.04391 10.2672 9.36671 9.61866 10.873 9.35562C11.5563 9.23602 12.2439 9.18884 12.9325 9.22982C15.0025 9.35324 16.7927 10.1123 18.2356 11.6272C18.5706 11.9788 18.8575 12.3681 19.1081 12.7841C19.1448 12.8447 19.1863 12.9028 19.2282 12.96C19.2349 12.969 19.2558 12.9676 19.2863 12.9752C19.3373 12.7503 19.3039 12.5225 19.3097 12.2981C19.3154 12.076 19.3111 11.854 19.3111 11.6319V9.57053C19.4183 9.56243 19.4941 9.55147 19.5703 9.55147C21.5307 9.55052 23.4911 9.55052 25.451 9.55099C25.4986 9.55099 25.553 9.53908 25.592 9.55814C25.6411 9.58244 25.6973 9.62581 25.714 9.67346C25.7364 9.73779 25.7255 9.81451 25.7255 9.88551C25.7255 16.6525 25.7255 23.42 25.7255 30.1869C25.7255 30.2346 25.7274 30.2822 25.7236 30.3299C25.7121 30.4886 25.6945 30.5062 25.542 30.5148C25.5025 30.5172 25.4624 30.5153 25.4229 30.5153C23.4944 30.5153 21.566 30.5153 19.6375 30.5153H19.3745C19.3668 30.4152 19.3549 30.3323 19.3549 30.2489C19.3535 29.4078 19.3545 28.5668 19.3535 27.7262C19.3535 27.6428 19.3478 27.5594 19.3449 27.476C19.3273 27.4699 19.3097 27.4637 19.292 27.4575C19.2449 27.5237 19.1934 27.5875 19.1505 27.6566C18.7278 28.3447 18.2189 28.958 17.5918 29.4712C16.7765 30.1388 15.8445 30.5486 14.8157 30.7549C13.9851 30.9212 13.1426 30.9456 12.3054 30.8874C10.2635 30.7459 8.43703 30.0264 6.84547 28.7326C5.44404 27.5937 4.4629 26.1556 3.83438 24.4697C3.47556 23.5067 3.24493 22.5141 3.14963 21.4905C3.12771 21.2537 3.12103 21.0155 3.09244 20.7796C3.07767 20.6495 3.03193 20.5223 3 20.3936C3 20.1554 3 19.9176 3 19.6793V19.6798ZM22.4666 24.839C22.479 24.8209 22.4914 24.8028 22.5037 24.7852C22.4509 24.7094 22.4008 24.6313 22.3455 24.5574C21.6131 23.5801 20.8817 22.6023 20.1455 21.6278C20.053 21.5053 20.0197 21.3967 20.0592 21.238C20.2179 20.6009 20.2446 19.9533 20.1493 19.3033C20.0006 18.2912 19.617 17.3777 18.9432 16.6053C17.5566 15.0157 15.8035 14.379 13.7383 14.786C11.9799 15.1324 10.7038 16.1693 9.93424 17.7976C9.45249 18.8168 9.32144 19.8909 9.52349 20.9983C9.97427 23.4705 12.0128 25.1406 14.1538 25.3727C15.0553 25.4704 15.9221 25.3789 16.7656 25.0539C17.2797 24.8562 17.7515 24.5831 18.1813 24.2377C18.2532 24.18 18.3166 24.1157 18.4324 24.1362C19.5446 24.3363 20.6582 24.5307 21.7713 24.7251C22.0025 24.7656 22.2345 24.8009 22.4661 24.8385L22.4666 24.839Z" fill="white"/>
    <path d="M42.0971 23.3738C42.5488 23.6692 42.9758 23.9571 43.4118 24.231C44.3 24.7895 45.2354 25.2556 46.2213 25.6177C46.9447 25.8831 47.688 26.0714 48.4528 26.1638C49.2372 26.2586 50.0191 26.2481 50.7849 26.0275C50.9736 25.9732 51.159 25.8941 51.3315 25.8002C51.9838 25.4457 52.1387 24.6904 51.9085 24.09C51.8328 23.8932 51.6998 23.7383 51.5325 23.6087C51.1494 23.3114 50.7063 23.1394 50.2507 22.9993C49.6155 22.8044 48.9679 22.6462 48.3389 22.4327C47.3721 22.1044 46.4119 21.7536 45.4575 21.3901C44.7837 21.1337 44.118 20.854 43.4966 20.4809C43.0663 20.2226 42.6665 19.9267 42.3048 19.5769C41.6668 18.9598 41.2751 18.2117 41.1259 17.343C40.9053 16.0564 41.0163 14.7965 41.5186 13.5862C42.0809 12.2315 43.0401 11.2255 44.3029 10.4974C45.3603 9.88796 46.5044 9.54534 47.7052 9.35426C48.7302 9.19129 49.7628 9.16223 50.7887 9.23513C52.9559 9.38857 54.9992 9.96229 56.8018 11.2303C57.1583 11.4809 57.4938 11.7611 57.8378 12.0294C57.8869 12.0675 57.9288 12.1152 57.9974 12.1809C57.1793 13.5009 56.3625 14.8185 55.531 16.1603C55.4424 16.106 55.3699 16.0641 55.2999 16.0178C54.4665 15.4646 53.613 14.9481 52.7 14.534C51.8861 14.1647 51.0408 13.8988 50.1502 13.8216C49.5269 13.7677 48.8979 13.7701 48.2865 13.9502C48.0025 14.0341 47.7438 14.1632 47.507 14.3448C46.8351 14.8599 46.7712 16.1436 47.5884 16.6778C47.8901 16.8751 48.2141 17.02 48.5543 17.1291C49.5493 17.4479 50.5476 17.7576 51.543 18.0745C52.8044 18.4757 54.0566 18.9022 55.2432 19.4978C55.7783 19.7666 56.2667 20.1035 56.7151 20.4985C57.4585 21.1528 57.9102 21.9724 58.0718 22.9454C58.2733 24.1558 58.1923 25.348 57.7725 26.5069C57.3622 27.64 56.6284 28.5268 55.6606 29.2292C54.7419 29.8959 53.7117 30.3114 52.6114 30.5644C51.8923 30.7298 51.1647 30.8322 50.4266 30.857C50.0544 30.8694 49.6813 30.9037 49.3096 30.8927C46.8127 30.8189 44.4258 30.3018 42.2138 29.0996C41.429 28.6731 40.7123 28.1513 40.0605 27.5414C39.8961 27.3875 39.8956 27.3846 39.9947 27.2026C40.6623 25.977 41.3308 24.7519 41.9994 23.5268C42.0256 23.4786 42.0575 23.4338 42.0952 23.3733L42.0971 23.3738Z" fill="white"/>
    <path d="M36.8645 30.4605H30.5364C30.4797 30.2542 30.4763 9.51862 30.5326 9.28894H36.8435C36.8545 9.29942 36.8611 9.30419 36.8659 9.31038C36.8707 9.3161 36.8773 9.32277 36.8783 9.32944C36.885 9.37614 36.895 9.42284 36.895 9.47002C36.8945 16.4352 36.8931 23.4009 36.8912 30.3661C36.8912 30.3885 36.8788 30.4109 36.864 30.4605H36.8645Z" fill="white"/>
    <path d="M30.4935 1H36.8554C36.9078 1.20204 36.914 6.50422 36.8611 6.75916C36.7849 6.76678 36.7015 6.78251 36.6176 6.78251C34.6658 6.78394 32.7136 6.78346 30.7617 6.78346C30.7222 6.78346 30.6826 6.78155 30.6426 6.78012C30.5483 6.77726 30.4944 6.73342 30.4954 6.63431C30.4954 6.57903 30.4939 6.52328 30.4939 6.46753C30.4939 4.73826 30.4939 3.00899 30.4939 1.27971V1H30.4935Z" fill="white"/>
  </g>
</svg>
