<?xml version="1.0" standalone="no"?>
<!DOCTYPE svg PUBLIC "-//W3C//DTD SVG 20010904//EN"
 "http://www.w3.org/TR/2001/REC-SVG-20010904/DTD/svg10.dtd">
<svg version="1.0" xmlns="http://www.w3.org/2000/svg"
 width="700.000000pt" height="700.000000pt" viewBox="0 0 700.000000 700.000000"
 preserveAspectRatio="xMidYMid meet">
<metadata>
Created by potrace 1.14, written by Peter Selinger 2001-2017
</metadata>
<g transform="translate(0.000000,700.000000) scale(0.100000,-0.100000)"
fill="#000000" stroke="none">
<path d="M3278 6995 c-2 -1 -42 -5 -89 -9 -47 -4 -95 -8 -105 -10 -10 -2 -48
-7 -84 -12 -36 -4 -67 -8 -70 -9 -3 -1 -25 -5 -50 -9 -25 -4 -101 -21 -170
-38 -69 -16 -135 -31 -147 -34 -97 -19 -411 -139 -581 -221 -176 -85 -457
-253 -551 -329 -9 -7 -52 -41 -96 -75 -432 -336 -819 -832 -1029 -1319 -16
-36 -35 -78 -42 -95 -54 -120 -153 -432 -180 -570 -2 -11 -10 -54 -19 -95 -29
-147 -36 -200 -52 -370 -15 -165 -8 -592 12 -711 2 -13 6 -46 9 -74 47 -409
239 -952 466 -1318 30 -48 60 -95 65 -105 24 -42 133 -191 208 -285 147 -182
310 -348 497 -504 102 -84 305 -233 320 -233 5 0 10 -4 10 -10 0 -5 4 -10 10
-10 5 0 41 -20 80 -45 163 -104 470 -247 695 -323 264 -89 552 -148 825 -170
182 -14 591 -7 712 13 13 2 46 6 73 10 28 3 59 8 70 10 11 3 31 7 45 9 72 12
111 19 165 33 33 8 71 17 85 20 62 11 278 80 400 128 820 319 1480 920 1872
1705 122 242 236 564 284 795 16 77 54 301 60 350 4 33 9 76 11 95 8 72 10
518 2 602 -8 84 -17 171 -24 213 -1 11 -6 43 -10 70 -3 28 -9 58 -11 67 -3 10
-7 30 -10 45 -17 98 -72 305 -109 418 -207 620 -577 1164 -1080 1591 -87 74
-267 205 -354 259 -230 141 -384 220 -616 314 -11 5 -33 14 -50 21 -152 61
-531 160 -680 176 -27 3 -53 8 -56 9 -3 2 -35 7 -71 10 -35 4 -78 9 -94 11
-32 5 -540 14 -546 9z"/>
</g>
</svg>
